<svg width="189" height="34" viewBox="0 0 189 34" fill="none" xmlns="http://www.w3.org/2000/svg">
<g clip-path="url(#clip0)">
<path d="M122.799 5.75804C123.684 5.89514 124.774 6.10078 126.068 6.37498L125.864 7.33465C124.638 7.06046 123.548 6.85482 122.595 6.71772L122.799 5.75804ZM129.746 4.66127L130.768 4.86691C130.359 6.99191 129.61 8.56852 128.452 9.59675C127.294 10.625 125.523 11.1734 123.208 11.379L123.071 10.3508C125.183 10.1451 126.749 9.6653 127.771 8.77417C128.724 7.95159 129.406 6.58062 129.746 4.66127ZM123.276 3.2903C124.229 3.4274 125.387 3.63304 126.681 3.90723L126.477 4.86691C125.183 4.59272 124.025 4.38707 123.071 4.24998L123.276 3.2903ZM128.316 2.94756L129.065 2.53627C129.337 3.01611 129.61 3.49594 129.882 4.04433L129.133 4.38707C128.861 3.97578 128.588 3.4274 128.316 2.94756ZM129.746 2.81046L130.495 2.39917C130.836 2.94756 131.108 3.4274 131.313 3.90723L130.563 4.24998C130.359 3.90723 130.087 3.4274 129.746 2.81046Z" fill="white"/>
<path d="M132.743 5.14111H138.736V10.9677H132.743V10.0766H137.646V8.36289H133.151V7.47176H137.646V6.03224H132.743V5.14111Z" fill="white"/>
<path d="M148.067 2.46773C148.339 3.01612 148.68 3.49596 148.952 4.11289C148.952 6.37499 148.407 8.0887 147.318 9.25402C146.228 10.4193 144.593 11.1048 142.414 11.3105L142.21 10.3508C144.049 10.1452 145.411 9.59676 146.296 8.77418C147.182 7.88305 147.658 6.58063 147.794 4.86692H141.324V3.8387H147.863C147.59 3.42741 147.454 3.08467 147.318 2.87902L148.067 2.46773ZM148.748 2.67338L149.497 2.26208C149.838 2.81047 150.11 3.29031 150.314 3.77015L149.565 4.11289C149.361 3.8387 149.089 3.29031 148.748 2.67338Z" fill="white"/>
<path d="M151.608 4.52419V3.63306H159.645V4.59273C159.441 5.27822 159.1 5.89515 158.624 6.51209C158.147 7.12902 157.534 7.60886 156.921 7.95161L156.376 7.12902C157.534 6.51209 158.215 5.68951 158.555 4.66128H151.608V4.52419ZM154.401 5.41531H155.422C155.422 6.58064 155.354 7.54031 155.15 8.29435C154.946 9.04838 154.673 9.66531 154.265 10.1452C153.856 10.625 153.311 10.9677 152.63 11.3105L152.153 10.4193C152.698 10.1452 153.175 9.87096 153.515 9.45967C153.856 9.04838 154.06 8.56854 154.196 7.95161C154.333 7.26612 154.401 6.44354 154.401 5.41531Z" fill="white"/>
<path d="M161.484 4.38711L161.961 3.42743C163.119 3.97582 164.141 4.5242 165.026 5.07259L164.481 6.03227C163.391 5.34678 162.37 4.7984 161.484 4.38711ZM168.363 4.38711L169.385 4.59275C168.704 8.50001 166.184 10.6936 161.825 11.0363L161.689 10.0081C163.664 9.80243 165.162 9.25404 166.252 8.36291C167.342 7.47178 168.023 6.10082 168.363 4.38711Z" fill="white"/>
<path d="M170.883 6.16936H179.397V7.12904H176.06C176.06 8.29436 175.787 9.25404 175.242 9.93953C174.697 10.625 173.812 11.1048 172.654 11.379L172.314 10.4194C173.267 10.1452 173.948 9.80243 174.357 9.32259C174.765 8.84275 174.97 8.08872 174.97 7.12904H170.883V6.16936ZM172.041 4.38711V3.42743H178.307V4.38711H172.041Z" fill="white"/>
<path d="M180.555 4.93547H184.573V2.94757H185.663V4.93547H189V5.9637H185.663V6.16935C185.663 7.74596 185.39 8.91128 184.777 9.66531C184.164 10.4193 183.211 10.9677 181.781 11.2419L181.44 10.2822C182.598 10.0081 183.415 9.59677 183.892 8.97983C184.369 8.36289 184.573 7.40322 184.573 6.1008V5.9637H180.555V4.93547Z" fill="white"/>
<path d="M29.5586 23.2379L33.6451 31.5323C34.19 32.6976 33.3727 34 32.1467 34C31.8743 34 31.6019 33.9315 31.3294 33.7944L20.5684 28.0363L29.5586 23.2379Z" fill="white"/>
<path d="M29.286 24.1976L33.1 31.875C33.2362 32.2178 33.2362 32.5605 33.0319 32.9032C32.8276 33.246 32.5552 33.3831 32.1465 33.3831C32.0103 33.3831 31.806 33.3145 31.6697 33.246L22.0665 28.1048L29.286 24.1976ZM29.5584 23.2379L20.6362 28.0363L31.3292 33.7944C31.6016 33.9315 31.8741 34 32.1465 34C33.4406 34 34.2579 32.629 33.6449 31.5323L29.5584 23.2379Z" fill="white"/>
<path d="M18.4572 0.959705C17.8442 -0.274166 16.0053 -0.274166 15.3924 0.959705L0.20425 31.5323C-0.340615 32.6976 0.476682 34 1.70263 34C1.97506 34 2.24749 33.9315 2.51993 33.7944L27.9924 20.0847L18.4572 0.959705ZM16.8907 11.0363L20.1599 17.617L11.1697 22.4154L16.8907 11.0363Z" fill="#FCCE00"/>
<path d="M48.9698 15.9032V28.0363C48.9698 29.3387 47.9482 30.3669 46.6541 30.3669H46.3136C45.0195 30.3669 43.9979 29.3387 43.9979 28.0363V26.9395H40.3882V28.0363C40.3882 31.3266 43.0444 34 46.3136 34H46.6541C49.9233 34 52.5795 31.3266 52.5795 28.0363V15.9032H48.9698Z" fill="white"/>
<path d="M185.731 20.0847H189.068V34H185.731V32.2863C185.118 32.9032 184.437 33.383 183.756 33.5887C183.075 33.8629 182.394 34 181.644 34C179.942 34 178.443 33.3145 177.217 32.0121C175.991 30.7097 175.378 29.0645 175.378 27.0766C175.378 25.0201 175.991 23.375 177.149 22.0726C178.375 20.7701 179.805 20.0847 181.508 20.0847C182.325 20.0847 183.075 20.2218 183.756 20.5645C184.437 20.8387 185.118 21.3185 185.663 21.9355V20.0847H185.731ZM182.257 23.1693C181.236 23.1693 180.418 23.5121 179.737 24.2661C179.056 25.0201 178.716 25.9113 178.716 27.0766C178.716 28.2419 179.056 29.133 179.737 29.8871C180.418 30.6411 181.304 30.9839 182.257 30.9839C183.279 30.9839 184.164 30.6411 184.845 29.8871C185.527 29.133 185.867 28.1734 185.867 27.008C185.867 25.8427 185.527 24.9516 184.845 24.1976C184.164 23.5121 183.279 23.1693 182.257 23.1693Z" fill="white"/>
<path d="M66.6096 22.0726C67.9717 23.4435 68.7209 25.0887 68.7209 27.008C68.7209 28.9274 68.0398 30.6411 66.6096 31.9435C65.2474 33.3145 63.5447 33.9314 61.5696 33.9314C59.5944 33.9314 57.8917 33.2459 56.5296 31.9435C55.1674 30.5726 54.4863 28.9274 54.4863 27.008C54.4863 25.0201 55.1674 23.375 56.5296 22.0726C57.8917 20.7016 59.5944 20.0847 61.5696 20.0847C63.5447 20.0847 65.2474 20.7701 66.6096 22.0726ZM59.1177 24.4032C58.5047 25.0887 58.1642 25.9798 58.1642 27.008C58.1642 28.0363 58.5047 28.9274 59.1177 29.6129C59.7307 30.2984 60.548 30.6411 61.5696 30.6411C62.5231 30.6411 63.3404 30.2984 64.0215 29.6129C64.7025 28.9274 64.975 28.0363 64.975 27.008C64.975 25.9798 64.6344 25.0887 64.0215 24.4032C63.3404 23.7177 62.5231 23.375 61.5696 23.375C60.6161 23.375 59.7988 23.7177 59.1177 24.4032Z" fill="white"/>
<path d="M82.8876 22.0726C84.1136 23.375 84.7266 25.0887 84.7266 27.0766C84.7266 29.0645 84.1136 30.7782 82.8876 32.0806C81.6617 33.383 80.1633 34.0685 78.2563 34.0685C76.3493 34.0685 74.9871 33.383 74.0336 32.0806V34.0685H70.6963V15.9032H74.306V21.6613C75.2595 20.633 76.5536 20.0846 78.2563 20.0846C80.1633 20.0846 81.7298 20.7016 82.8876 22.0726ZM80.0952 29.6814C80.7763 28.9959 81.0487 28.1048 81.0487 27.008C81.0487 25.9113 80.7082 25.0201 80.0271 24.3346C79.346 23.6492 78.5287 23.3064 77.5752 23.3064C76.6217 23.3064 75.8725 23.6492 75.1914 24.2661C74.5103 24.883 74.2379 25.8427 74.2379 27.008C74.2379 28.2419 74.5784 29.133 75.2595 29.75C75.9406 30.3669 76.6898 30.7096 77.6433 30.7096C78.5968 30.7096 79.4141 30.3669 80.0952 29.6814Z" fill="white"/>
<path d="M100.323 31.7379H93.104L92.0824 34.0685H88.2002L95.8964 16.4516C96.0326 16.1088 96.3732 15.9032 96.7137 15.9032C97.0542 15.9032 97.3948 16.1088 97.531 16.4516L105.159 34H101.277L100.323 31.7379ZM96.7137 22.758L94.398 28.7217H99.0294L96.7137 22.758Z" fill="white"/>
<path d="M117.555 21.5242C118.44 22.4838 118.917 23.7863 118.917 25.4314V34H115.307V25.9113C115.307 25.1572 115.103 24.5403 114.626 24.0605C114.149 23.5806 113.605 23.375 112.855 23.375C112.106 23.375 111.493 23.5806 111.016 24.0605C110.54 24.5403 110.335 25.1572 110.335 25.9113V34H106.726V20.0847H110.063V21.5927C111.085 20.5645 112.379 20.0847 113.945 20.0847C115.443 20.0847 116.669 20.5645 117.555 21.5242Z" fill="white"/>
<path d="M130.427 30.6411V33.6572C129.542 33.8628 128.724 33.9999 127.907 33.9999C126.204 33.9999 124.91 33.5887 124.025 32.7661C123.071 31.9435 122.663 30.7096 122.663 28.9959V23.1008H120.551V20.0161H122.663V16.9314H126.272V20.0161H130.018V23.1008H126.272V28.6532C126.272 29.4072 126.477 29.9556 126.885 30.2298C127.294 30.5725 127.907 30.7096 128.792 30.7096C128.929 30.7782 129.473 30.7096 130.427 30.6411Z" fill="white"/>
<path d="M144.593 28.2419H135.263C135.467 29.0645 135.944 29.75 136.557 30.1613C137.238 30.6411 137.987 30.8468 139.009 30.8468C140.303 30.8468 141.529 30.3669 142.686 29.4758L144.185 31.9435C142.618 33.2459 140.847 33.9314 138.872 33.9314C136.761 33.9314 135.058 33.2459 133.696 31.9435C132.334 30.5726 131.653 28.9274 131.653 27.008C131.653 25.0201 132.334 23.375 133.628 22.0726C134.99 20.7016 136.625 20.0847 138.532 20.0847C140.371 20.0847 141.869 20.7016 143.027 21.8669C144.185 23.0322 144.798 24.5403 144.798 26.254C144.866 26.9395 144.73 27.5564 144.593 28.2419ZM136.489 23.7177C135.944 24.1976 135.535 24.883 135.331 25.7056H141.392C141.392 24.883 141.12 24.1976 140.507 23.7177C139.962 23.2379 139.281 22.9637 138.532 22.9637C137.714 23.0322 137.033 23.2379 136.489 23.7177Z" fill="white"/>
<path d="M157.67 21.5242C158.556 22.4838 159.033 23.7863 159.033 25.4314V34H155.423V25.9113C155.423 25.1572 155.219 24.5403 154.742 24.0605C154.265 23.5806 153.72 23.375 152.971 23.375C152.222 23.375 151.609 23.5806 151.132 24.0605C150.655 24.5403 150.451 25.1572 150.451 25.9113V34H146.841V20.0847H150.179V21.5927C151.2 20.5645 152.494 20.0847 154.061 20.0847C155.559 20.0847 156.785 20.5645 157.67 21.5242Z" fill="white"/>
<path d="M172.177 21.5242C173.063 22.4838 173.539 23.7863 173.539 25.4314V34H169.93V25.9113C169.93 25.1572 169.725 24.5403 169.249 24.0605C168.772 23.5806 168.227 23.375 167.478 23.375C166.729 23.375 166.116 23.5806 165.639 24.0605C165.162 24.5403 164.958 25.1572 164.958 25.9113V34H161.348V20.0847H164.685V21.5927C165.707 20.5645 167.001 20.0847 168.568 20.0847C170.066 20.0847 171.292 20.5645 172.177 21.5242Z" fill="white"/>
</g>
<defs>
<clipPath id="clip0">
<rect width="189" height="34" fill="white"/>
</clipPath>
</defs>
</svg>
