<svg width="20" height="22" viewBox="0 0 20 22" fill="none" xmlns="http://www.w3.org/2000/svg">
<path d="M10.4721 6.11621H4.57612C4.18012 6.11621 3.82812 6.46821 3.82812 6.86421C3.82812 7.26021 4.18012 7.61221 4.57612 7.61221H10.5161C10.9121 7.61221 11.2641 7.26021 11.2641 6.86421C11.2201 6.46821 10.9121 6.11621 10.4721 6.11621Z" fill="white"/>
<path d="M11.2201 11C11.2201 10.604 10.8681 10.252 10.4721 10.252H4.57612C4.18012 10.252 3.82812 10.604 3.82812 11C3.82812 11.396 4.18012 11.748 4.57612 11.748H10.5161C10.9121 11.704 11.2201 11.396 11.2201 11Z" fill="white"/>
<path d="M4.57612 14.3442C4.18012 14.3442 3.82812 14.6962 3.82812 15.0922C3.82812 15.4882 4.13612 15.8402 4.57612 15.8402H7.87612C8.27212 15.8402 8.62413 15.4882 8.62413 15.0922C8.62413 14.6962 8.27212 14.3442 7.87612 14.3442H4.57612Z" fill="white"/>
<path d="M19.3604 2.772C19.3604 1.232 18.1284 0 16.5884 0C15.0484 0 13.8164 1.232 13.8164 2.772V17.16C13.8164 17.204 13.8164 17.204 13.8164 17.248C13.8164 17.292 13.8164 17.292 13.8164 17.336C13.8164 17.38 13.8164 17.38 13.8164 17.424C13.8164 17.468 13.8164 17.468 13.8604 17.512L15.9284 21.604C16.0604 21.868 16.3244 22 16.5884 22C16.8524 22 17.1164 21.824 17.2484 21.604L19.3164 17.512C19.3164 17.468 19.3164 17.468 19.3604 17.424C19.3604 17.38 19.3604 17.38 19.3604 17.336C19.3604 17.336 19.3604 17.292 19.3604 17.248C19.3604 17.204 19.3604 17.204 19.3604 17.16V2.772ZM16.5884 19.624L15.2684 16.984V2.772C15.2684 2.068 15.8404 1.452 16.5884 1.452C17.2924 1.452 17.9084 2.024 17.9084 2.772V16.984L16.5884 19.624Z" fill="white"/>
<path d="M12.452 20.0199H1.936C1.716 20.0199 1.452 19.7119 1.452 19.2719V2.72789C1.452 2.33189 1.716 1.97989 1.936 1.97989H10.868C11.264 1.97989 11.616 1.62789 11.616 1.23189C11.616 0.835887 11.264 0.483887 10.868 0.483887H1.936C0.88 0.527887 0 1.49589 0 2.72789V19.2719C0 20.5039 0.88 21.4719 1.936 21.4719H12.452C12.848 21.4719 13.2 21.1199 13.2 20.7239C13.2 20.3279 12.892 20.0199 12.452 20.0199Z" fill="white"/>
</svg>
