<svg width="38" height="30" viewBox="0 0 38 30" fill="none" xmlns="http://www.w3.org/2000/svg">
<path d="M11.9368 30C26.2761 30 34.1224 18.4547 34.1224 8.45965C34.1224 8.13484 34.1224 7.81004 34.1072 7.48524C35.6278 6.42224 36.9508 5.07874 38 3.55807C36.601 4.16339 35.0956 4.56201 33.5142 4.75394C35.126 3.82382 36.3577 2.33268 36.9508 0.561024C35.4454 1.43209 33.7727 2.05217 31.9936 2.39173C30.5642 0.915354 28.5418 0 26.3065 0C22.0032 0 18.5058 3.39567 18.5058 7.57382C18.5058 8.16437 18.5818 8.74016 18.7035 9.30118C12.2257 8.99114 6.47779 5.96457 2.63065 1.3878C1.96158 2.50984 1.58143 3.80906 1.58143 5.19685C1.58143 7.8248 2.96519 10.1427 5.04842 11.501C3.77111 11.4567 2.56983 11.1171 1.52061 10.5561C1.52061 10.5856 1.52061 10.6152 1.52061 10.6594C1.52061 14.3209 4.21208 17.3917 7.77031 18.0856C7.11645 18.2628 6.43217 18.3514 5.71749 18.3514C5.21569 18.3514 4.72909 18.3071 4.2577 18.2185C5.2461 21.2303 8.13525 23.4154 11.5414 23.4744C8.86515 25.5118 5.5046 26.7224 1.85514 26.7224C1.23169 26.7224 0.608243 26.6929 0 26.6191C3.43657 28.7451 7.54222 30 11.9368 30Z" fill="white"/>
</svg>
