<svg width="22" height="22" viewBox="0 0 22 22" fill="none" xmlns="http://www.w3.org/2000/svg">
<path d="M0.5 4C0.5 2.067 2.067 0.5 4 0.5H18C19.933 0.5 21.5 2.067 21.5 4V18C21.5 19.933 19.933 21.5 18 21.5H4C2.067 21.5 0.5 19.933 0.5 18V4Z" fill="#F9A406" stroke="#F9A406"/>
<g clip-path="url(#clip0)">
<path d="M8.72847 14.849L5.15463 11.3622C4.93804 11.1509 4.93804 10.8188 5.15463 10.6075L5.92819 9.85281C6.14479 9.64149 6.48516 9.64149 6.70175 9.85281L9.11525 12.2075L14.2826 7.15092C14.4992 6.9396 14.8396 6.9396 15.0562 7.15092L15.8297 7.90564C16.0463 8.11696 16.0463 8.44904 15.8297 8.66036L9.5175 14.849C9.30091 15.0453 8.94507 15.0453 8.72847 14.849Z" fill="white"/>
</g>
<defs>
<clipPath id="clip0">
<rect width="11" height="8" fill="white" transform="translate(5 7)"/>
</clipPath>
</defs>
</svg>
