<svg width="24" height="26" viewBox="0 0 24 26" fill="none" xmlns="http://www.w3.org/2000/svg">
<path d="M13.4274 15.3398H0.970037C0.408437 15.3398 0 14.8718 0 14.3518C0 13.8318 0.459491 13.3638 0.970037 13.3638H11.0278L7.45397 9.72381C7.04554 9.30781 7.04554 8.68381 7.45397 8.31981C7.86241 7.90381 8.47506 7.90381 8.83245 8.31981L14.0911 13.6758C14.3463 13.9358 14.4485 14.4038 14.2953 14.7678C14.1932 15.0798 13.8358 15.3398 13.4274 15.3398Z" fill="#263238"/>
<path d="M22.5661 26H12.0999C11.5383 26 11.1299 25.532 11.1299 25.012V21.008C11.1299 20.436 11.5894 20.02 12.0999 20.02C12.6105 20.02 13.07 20.488 13.07 21.008V24.024H21.5961V1.976H13.07V4.992C13.07 5.564 12.6105 5.98 12.0999 5.98C11.5894 5.98 11.1299 5.512 11.1299 4.992V0.988C11.1299 0.416 11.5894 0 12.0999 0H22.5661C23.1277 0 23.5362 0.468 23.5362 0.988V25.012C23.5872 25.532 23.1277 26 22.5661 26Z" fill="#263238"/>
</svg>
