<svg width="33" height="24" viewBox="0 0 33 24" fill="none" xmlns="http://www.w3.org/2000/svg">
<path d="M21.3555 17.4639C16.533 17.4639 12.6001 13.531 12.6001 8.70854C12.6001 3.93289 16.533 0 21.3555 0C23.6965 0 25.897 0.889582 27.5357 2.57511C29.1744 4.21381 30.1108 6.41436 30.1108 8.75536C30.1108 11.0964 29.2212 13.2969 27.5357 14.9356C27.1143 15.357 26.4589 15.357 26.0375 14.9356C25.6161 14.5142 25.6161 13.8588 26.0375 13.4374C27.3016 12.1732 27.9571 10.5345 27.9571 8.75536C27.9571 6.9762 27.2548 5.33749 26.0375 4.07335C24.7733 2.80921 23.1346 2.15373 21.3555 2.15373C17.7035 2.15373 14.7538 5.10339 14.7538 8.75536C14.7538 12.4073 17.7035 15.357 21.3555 15.357C21.9173 15.357 22.526 15.2634 23.0878 15.1229C23.6496 14.9824 24.2583 15.3102 24.3988 15.872C24.5392 16.4339 24.2115 17.0425 23.6496 17.183C22.8537 17.3703 22.1046 17.4639 21.3555 17.4639Z" fill="#263238"/>
<path d="M31.1879 19.6646C30.9069 19.6646 30.626 19.571 30.4387 19.3369L25.9908 14.889C25.5695 14.4676 25.5695 13.8121 25.9908 13.3907C26.4122 12.9694 27.0677 12.9694 27.4891 13.3907L31.937 17.8387C32.3584 18.26 32.3584 18.9155 31.937 19.3369C31.7497 19.571 31.4688 19.6646 31.1879 19.6646Z" fill="#263238"/>
<path d="M9.67253 11.4001H1.12747C0.534066 11.4001 0 10.9951 0 10.5001C0 10.0051 0.474725 9.6001 1.12747 9.6001H9.67253C10.2659 9.6001 10.8 10.0051 10.8 10.5001C10.8 10.9951 10.2659 11.4001 9.67253 11.4001Z" fill="#263238"/>
<path d="M9.67253 5.4001H1.12747C0.534066 5.4001 0 4.9951 0 4.5001C0 4.0051 0.474725 3.6001 1.12747 3.6001H9.67253C10.2659 3.6001 10.8 4.0051 10.8 4.5001C10.8 4.9951 10.2659 5.4001 9.67253 5.4001Z" fill="#263238"/>
<path d="M20.835 23.4729H0.936403C0.421381 23.4729 0 23.0515 0 22.5365C0 22.0215 0.421381 21.6001 0.936403 21.6001H20.835C21.35 21.6001 21.7714 22.0215 21.7714 22.5365C21.7714 23.0515 21.35 23.4729 20.835 23.4729Z" fill="#263238"/>
<rect y="15.6001" width="13.2" height="1.8" rx="0.900001" fill="#263238"/>
</svg>
