<svg width="16" height="16" viewBox="0 0 16 16" fill="none" xmlns="http://www.w3.org/2000/svg">
<circle cx="8" cy="8" r="8" fill="#1E88E5"/>
<path d="M7.088 8.916H8.636C8.456 7.248 11.072 7.044 11.072 5.28C11.072 3.684 9.8 2.88 8.06 2.88C6.776 2.88 5.72 3.456 4.964 4.344L5.948 5.256C6.536 4.632 7.124 4.308 7.868 4.308C8.804 4.308 9.38 4.716 9.38 5.436C9.38 6.6 6.836 7.032 7.088 8.916ZM7.868 12.108C8.48 12.108 8.924 11.676 8.924 11.052C8.924 10.416 8.48 9.984 7.868 9.984C7.268 9.984 6.812 10.416 6.812 11.052C6.812 11.676 7.256 12.108 7.868 12.108Z" fill="white"/>
</svg>
