<svg width="72" height="72" viewBox="0 0 72 72" fill="none" xmlns="http://www.w3.org/2000/svg">
<g filter="url(#filter0_dd)">
<circle cx="36" cy="33" r="30" fill="#FFC306"/>
<g clip-path="url(#clip0)">
<path d="M46.42 42.8469L42.1133 38.5402C43.5067 36.7669 44.2667 34.6135 44.2667 32.3335C44.2667 26.7602 39.7067 22.2002 34.1333 22.2002C31.41 22.2002 28.8767 23.2769 26.9767 25.1769C25.0767 27.0769 24 29.6102 24 32.3335C24 37.9069 28.56 42.4669 34.1333 42.4669C35.02 42.4669 35.9067 42.3402 36.7933 42.1502C37.49 41.9602 37.87 41.2635 37.68 40.6302C37.49 39.9335 36.7933 39.5535 36.16 39.7435C35.5267 39.9335 34.83 39.9969 34.1967 39.9969C29.9533 39.9335 26.5333 36.5135 26.5333 32.3335C26.5333 30.3069 27.2933 28.4069 28.75 26.9502C30.2067 25.4935 32.1067 24.7335 34.1333 24.7335C38.3133 24.7335 41.7333 28.1535 41.7333 32.3335C41.7333 34.3602 40.9733 36.2602 39.5167 37.7169C39.01 38.2235 39.01 38.9835 39.5167 39.4902L44.6467 44.6202C44.9 44.8735 45.2167 45.0002 45.5333 45.0002C45.85 45.0002 46.1667 44.8735 46.42 44.6202C46.9267 44.1135 46.9267 43.3535 46.42 42.8469Z" fill="#263238"/>
</g>
</g>
<defs>
<filter id="filter0_dd" x="0" y="0" width="72" height="72" filterUnits="userSpaceOnUse" color-interpolation-filters="sRGB">
<feFlood flood-opacity="0" result="BackgroundImageFix"/>
<feColorMatrix in="SourceAlpha" type="matrix" values="0 0 0 0 0 0 0 0 0 0 0 0 0 0 0 0 0 0 127 0"/>
<feOffset dy="3"/>
<feGaussianBlur stdDeviation="3"/>
<feColorMatrix type="matrix" values="0 0 0 0 0.14902 0 0 0 0 0.196078 0 0 0 0 0.219608 0 0 0 0.23 0"/>
<feBlend mode="normal" in2="BackgroundImageFix" result="effect1_dropShadow"/>
<feColorMatrix in="SourceAlpha" type="matrix" values="0 0 0 0 0 0 0 0 0 0 0 0 0 0 0 0 0 0 127 0"/>
<feOffset dy="3"/>
<feGaussianBlur stdDeviation="3"/>
<feColorMatrix type="matrix" values="0 0 0 0 0 0 0 0 0 0 0 0 0 0 0 0 0 0 0.16 0"/>
<feBlend mode="normal" in2="effect1_dropShadow" result="effect2_dropShadow"/>
<feBlend mode="normal" in="SourceGraphic" in2="effect2_dropShadow" result="shape"/>
</filter>
<clipPath id="clip0">
<rect width="22.8" height="22.8" fill="white" transform="matrix(-1 0 0 1 46.7998 22.2002)"/>
</clipPath>
</defs>
</svg>
