<svg width="24" height="28" viewBox="0 0 24 28" fill="none" xmlns="http://www.w3.org/2000/svg">
<path d="M12.6935 7.78418H5.5468C5.0668 7.78418 4.64014 8.23218 4.64014 8.73618C4.64014 9.24018 5.0668 9.68818 5.5468 9.68818H12.7468C13.2268 9.68818 13.6535 9.24018 13.6535 8.73618C13.6001 8.23218 13.2268 7.78418 12.6935 7.78418Z" fill="#263238"/>
<path d="M13.6001 13.9999C13.6001 13.4959 13.1735 13.0479 12.6935 13.0479H5.5468C5.0668 13.0479 4.64014 13.4959 4.64014 13.9999C4.64014 14.5039 5.0668 14.9519 5.5468 14.9519H12.7468C13.2268 14.8959 13.6001 14.5039 13.6001 13.9999Z" fill="#263238"/>
<path d="M5.5468 18.2559C5.0668 18.2559 4.64014 18.7039 4.64014 19.2079C4.64014 19.7119 5.01347 20.1599 5.5468 20.1599H9.5468C10.0268 20.1599 10.4535 19.7119 10.4535 19.2079C10.4535 18.7039 10.0268 18.2559 9.5468 18.2559H5.5468Z" fill="#263238"/>
<path d="M23.4666 3.528C23.4666 1.568 21.9732 0 20.1066 0C18.2399 0 16.7466 1.568 16.7466 3.528V21.84C16.7466 21.896 16.7466 21.896 16.7466 21.952C16.7466 22.008 16.7466 22.008 16.7466 22.064C16.7466 22.12 16.7466 22.12 16.7466 22.176C16.7466 22.232 16.7466 22.232 16.7999 22.288L19.3066 27.496C19.4666 27.832 19.7866 28 20.1066 28C20.4266 28 20.7466 27.776 20.9066 27.496L23.4132 22.288C23.4132 22.232 23.4132 22.232 23.4666 22.176C23.4666 22.12 23.4666 22.12 23.4666 22.064C23.4666 22.064 23.4666 22.008 23.4666 21.952C23.4666 21.896 23.4666 21.896 23.4666 21.84V3.528ZM20.1066 24.976L18.5066 21.616V3.528C18.5066 2.632 19.1999 1.848 20.1066 1.848C20.9599 1.848 21.7066 2.576 21.7066 3.528V21.616L20.1066 24.976Z" fill="#263238"/>
<path d="M15.0933 25.4802H2.34667C2.08 25.4802 1.76 25.0882 1.76 24.5282V3.47221C1.76 2.96821 2.08 2.52021 2.34667 2.52021H13.1733C13.6533 2.52021 14.08 2.07221 14.08 1.56821C14.08 1.06421 13.6533 0.616211 13.1733 0.616211H2.34667C1.06667 0.672211 0 1.90421 0 3.47221V24.5282C0 26.0962 1.06667 27.3282 2.34667 27.3282H15.0933C15.5733 27.3282 16 26.8802 16 26.3762C16 25.8722 15.6267 25.4802 15.0933 25.4802Z" fill="#263238"/>
</svg>
