<svg width="141" height="25" viewBox="0 0 141 25" fill="none" xmlns="http://www.w3.org/2000/svg">
<g clip-path="url(#clip0)">
<path d="M91.6119 4.23386C92.2724 4.33466 93.0854 4.48587 94.0508 4.68749L93.8984 5.39313C92.9838 5.19152 92.1708 5.04031 91.4595 4.9395L91.6119 4.23386ZM96.7946 3.42741L97.5568 3.57861C97.2519 5.14111 96.693 6.30039 95.8292 7.05644C94.9654 7.81249 93.6443 8.21571 91.9168 8.36692L91.8151 7.61087C93.3903 7.45966 94.5589 7.10684 95.3211 6.4516C96.0324 5.84676 96.5405 4.8387 96.7946 3.42741ZM91.9676 2.41934C92.6789 2.52015 93.5427 2.67136 94.5081 2.87297L94.3557 3.57861C93.3903 3.377 92.5265 3.22579 91.8151 3.12499L91.9676 2.41934ZM95.7276 2.16732L96.2865 1.86491C96.4897 2.21773 96.693 2.57055 96.8962 2.97378L96.3373 3.22579C96.1341 2.92337 95.9308 2.52015 95.7276 2.16732ZM96.7946 2.06652L97.3535 1.7641C97.6076 2.16732 97.8108 2.52015 97.9632 2.87297L97.4043 3.12499C97.2519 2.87297 97.0487 2.52015 96.7946 2.06652Z" fill="#2A2E3D"/>
<path d="M99.0303 3.78021H103.502V8.06449H99.0303V7.40925H102.689V6.14916H99.3351V5.49392H102.689V4.43545H99.0303V3.78021Z" fill="#2A2E3D"/>
<path d="M110.463 1.81454C110.666 2.21777 110.92 2.57059 111.123 3.02422C111.123 4.68752 110.717 5.9476 109.904 6.80446C109.091 7.66131 107.872 8.16535 106.246 8.31656L106.093 7.61091C107.465 7.4597 108.481 7.05648 109.142 6.45164C109.802 5.79639 110.158 4.83873 110.26 3.57865H105.433V2.8226H110.31C110.107 2.52018 110.006 2.26817 109.904 2.11696L110.463 1.81454ZM110.971 1.96575L111.53 1.66333C111.784 2.06656 111.987 2.41938 112.14 2.7722L111.581 3.02422C111.428 2.8226 111.225 2.41938 110.971 1.96575Z" fill="#2A2E3D"/>
<path d="M113.105 3.32663V2.67139H119.101V3.37703C118.948 3.88106 118.694 4.33469 118.338 4.78832C117.983 5.24195 117.526 5.59477 117.068 5.84679L116.662 5.24195C117.526 4.78832 118.034 4.18348 118.288 3.42744H113.105V3.32663ZM115.188 3.98187H115.95C115.95 4.83873 115.9 5.54437 115.747 6.09881C115.595 6.65324 115.391 7.10687 115.087 7.45969C114.782 7.81252 114.375 8.06453 113.867 8.31655L113.511 7.66131C113.918 7.45969 114.274 7.25808 114.528 6.95566C114.782 6.65324 114.934 6.30042 115.036 5.84679C115.137 5.34276 115.188 4.73792 115.188 3.98187Z" fill="#2A2E3D"/>
<path d="M120.472 3.22579L120.828 2.52014C121.692 2.92337 122.454 3.32659 123.114 3.72982L122.708 4.43546C121.895 3.93143 121.133 3.52821 120.472 3.22579ZM125.604 3.22579L126.366 3.377C125.858 6.24998 123.978 7.86288 120.726 8.1149L120.625 7.35885C122.098 7.20764 123.216 6.80442 124.029 6.14917C124.842 5.49393 125.35 4.48587 125.604 3.22579Z" fill="#2A2E3D"/>
<path d="M127.484 4.53627H133.836V5.24192H131.346C131.346 6.09877 131.143 6.80442 130.736 7.30845C130.33 7.81248 129.669 8.1653 128.805 8.36692L128.551 7.66127C129.263 7.45966 129.771 7.20764 130.076 6.85482C130.381 6.502 130.533 5.94756 130.533 5.24192H127.484V4.53627ZM128.348 3.22579V2.52014H133.023V3.22579H128.348Z" fill="#2A2E3D"/>
<path d="M134.699 3.62905H137.697V2.16736H138.51V3.62905H141V4.3851H138.51V4.53631C138.51 5.69558 138.307 6.55244 137.849 7.10688C137.392 7.66131 136.681 8.06454 135.614 8.26615L135.36 7.5605C136.224 7.35889 136.833 7.05647 137.189 6.60284C137.545 6.14921 137.697 5.44357 137.697 4.48591V4.3851H134.699V3.62905Z" fill="#2A2E3D"/>
<path d="M22.0518 17.0867L25.1004 23.1855C25.5069 24.0423 24.8972 25 23.9826 25C23.7793 25 23.5761 24.9496 23.3728 24.8488L15.3447 20.6149L22.0518 17.0867Z" fill="#2A2E3D"/>
<path d="M21.8485 17.7923L24.6939 23.4375C24.7955 23.6895 24.7955 23.9415 24.6431 24.1935C24.4906 24.4455 24.2874 24.5463 23.9825 24.5463C23.8809 24.5463 23.7285 24.4959 23.6269 24.4455L16.4625 20.6653L21.8485 17.7923ZM22.0517 17.0867L15.3955 20.6149L23.3728 24.8488C23.576 24.9496 23.7793 25 23.9825 25C24.9479 25 25.5577 23.9919 25.1004 23.1855L22.0517 17.0867Z" fill="#2A2E3D"/>
<path d="M13.7696 0.705651C13.3123 -0.201607 11.9404 -0.201607 11.4831 0.705651L0.15226 23.1855C-0.254226 24.0423 0.355504 25 1.2701 25C1.47334 25 1.67658 24.9496 1.87983 24.8488L20.8831 14.7682L13.7696 0.705651ZM12.6009 8.11493L15.0398 12.9536L8.3328 16.4819L12.6009 8.11493Z" fill="#FCCE00"/>
<path d="M36.533 11.6935V20.6149C36.533 21.5726 35.7709 22.3286 34.8055 22.3286H34.5514C33.586 22.3286 32.8238 21.5726 32.8238 20.6149V19.8085H30.1309V20.6149C30.1309 23.0343 32.1125 25 34.5514 25H34.8055C37.2444 25 39.226 23.0343 39.226 20.6149V11.6935H36.533Z" fill="#2A2E3D"/>
<path d="M138.561 14.7681H141.051V25H138.561V23.7399C138.104 24.1935 137.596 24.5464 137.088 24.6976C136.58 24.8992 136.071 25 135.512 25C134.242 25 133.124 24.496 132.21 23.5383C131.295 22.5806 130.838 21.371 130.838 19.9093C130.838 18.3972 131.295 17.1875 132.159 16.2298C133.074 15.2722 134.141 14.7681 135.411 14.7681C136.021 14.7681 136.58 14.8689 137.088 15.121C137.596 15.3226 138.104 15.6754 138.51 16.129V14.7681H138.561ZM135.97 17.0363C135.208 17.0363 134.598 17.2883 134.09 17.8427C133.582 18.3972 133.328 19.0524 133.328 19.9093C133.328 20.7661 133.582 21.4214 134.09 21.9758C134.598 22.5302 135.258 22.7822 135.97 22.7822C136.732 22.7822 137.392 22.5302 137.901 21.9758C138.409 21.4214 138.663 20.7157 138.663 19.8589C138.663 19.002 138.409 18.3468 137.901 17.7923C137.392 17.2883 136.732 17.0363 135.97 17.0363Z" fill="#2A2E3D"/>
<path d="M49.6928 16.2298C50.709 17.2379 51.2679 18.4476 51.2679 19.8589C51.2679 21.2701 50.7598 22.5302 49.6928 23.4879C48.6765 24.496 47.4063 24.9496 45.9328 24.9496C44.4592 24.9496 43.189 24.4455 42.1728 23.4879C41.1565 22.4798 40.6484 21.2701 40.6484 19.8589C40.6484 18.3972 41.1565 17.1875 42.1728 16.2298C43.189 15.2218 44.4592 14.7681 45.9328 14.7681C47.4063 14.7681 48.6765 15.2722 49.6928 16.2298ZM44.1036 17.9435C43.6463 18.4476 43.3922 19.1028 43.3922 19.8589C43.3922 20.6149 43.6463 21.2701 44.1036 21.7742C44.5609 22.2782 45.1706 22.5302 45.9328 22.5302C46.6441 22.5302 47.2538 22.2782 47.762 21.7742C48.2701 21.2701 48.4733 20.6149 48.4733 19.8589C48.4733 19.1028 48.2192 18.4476 47.762 17.9435C47.2538 17.4395 46.6441 17.1875 45.9328 17.1875C45.2214 17.1875 44.6117 17.4395 44.1036 17.9435Z" fill="#2A2E3D"/>
<path d="M61.8368 16.2298C62.7514 17.1875 63.2087 18.4476 63.2087 19.9093C63.2087 21.371 62.7514 22.631 61.8368 23.5887C60.9222 24.5464 59.8044 25.0504 58.3817 25.0504C56.959 25.0504 55.9428 24.5464 55.2314 23.5887V25.0504H52.7417V11.6935H55.4347V15.9274C56.146 15.1714 57.1114 14.7681 58.3817 14.7681C59.8044 14.7681 60.973 15.2218 61.8368 16.2298ZM59.7536 21.8246C60.2617 21.3206 60.4649 20.6653 60.4649 19.8589C60.4649 19.0524 60.2109 18.3972 59.7028 17.8931C59.1947 17.3891 58.5849 17.1371 57.8736 17.1371C57.1622 17.1371 56.6033 17.3891 56.0952 17.8427C55.5871 18.2964 55.3839 19.002 55.3839 19.8589C55.3839 20.7661 55.6379 21.4214 56.146 21.875C56.6541 22.3286 57.213 22.5806 57.9244 22.5806C58.6358 22.5806 59.2455 22.3286 59.7536 21.8246Z" fill="#2A2E3D"/>
<path d="M74.8441 23.3367H69.4582L68.696 25.0504H65.7998L71.5414 12.0968C71.643 11.8448 71.8971 11.6935 72.1512 11.6935C72.4052 11.6935 72.6593 11.8448 72.7609 12.0968L78.4517 25H75.5555L74.8441 23.3367ZM72.1512 16.7339L70.4236 21.1189H73.8787L72.1512 16.7339Z" fill="#2A2E3D"/>
<path d="M87.6995 15.8266C88.3601 16.5322 88.7157 17.4899 88.7157 18.6996V25H86.0228V19.0524C86.0228 18.498 85.8703 18.0443 85.5147 17.6915C85.159 17.3387 84.7525 17.1875 84.1936 17.1875C83.6347 17.1875 83.1774 17.3387 82.8217 17.6915C82.466 18.0443 82.3136 18.498 82.3136 19.0524V25H79.6206V14.7681H82.1103V15.877C82.8725 15.121 83.8379 14.7681 85.0066 14.7681C86.1244 14.7681 87.039 15.121 87.6995 15.8266Z" fill="#2A2E3D"/>
<path d="M97.3026 22.5302V24.748C96.6421 24.8992 96.0323 25 95.4226 25C94.1523 25 93.1869 24.6976 92.5264 24.0927C91.8151 23.4879 91.5102 22.5806 91.5102 21.3206V16.9859H89.9351V14.7177H91.5102V12.4496H94.2032V14.7177H96.9977V16.9859H94.2032V21.0685C94.2032 21.623 94.3556 22.0262 94.6605 22.2278C94.9653 22.4798 95.4226 22.5806 96.0832 22.5806C96.1848 22.631 96.5913 22.5806 97.3026 22.5302Z" fill="#2A2E3D"/>
<path d="M107.871 20.7661H100.91C101.063 21.371 101.418 21.875 101.876 22.1774C102.384 22.5302 102.943 22.6814 103.705 22.6814C104.67 22.6814 105.585 22.3286 106.449 21.6734L107.566 23.4879C106.398 24.4455 105.077 24.9496 103.603 24.9496C102.028 24.9496 100.758 24.4455 99.7416 23.4879C98.7254 22.4798 98.2173 21.2701 98.2173 19.8589C98.2173 18.3972 98.7254 17.1875 99.6908 16.2298C100.707 15.2218 101.926 14.7681 103.349 14.7681C104.721 14.7681 105.839 15.2218 106.703 16.0786C107.566 16.9355 108.024 18.0443 108.024 19.3044C108.075 19.8085 107.973 20.2621 107.871 20.7661ZM101.825 17.4395C101.418 17.7923 101.113 18.2964 100.961 18.9012H105.483C105.483 18.2964 105.28 17.7923 104.823 17.4395C104.416 17.0867 103.908 16.8851 103.349 16.8851C102.739 16.9355 102.231 17.0867 101.825 17.4395Z" fill="#2A2E3D"/>
<path d="M117.627 15.8266C118.288 16.5322 118.643 17.4899 118.643 18.6996V25H115.951V19.0524C115.951 18.498 115.798 18.0443 115.442 17.6915C115.087 17.3387 114.68 17.1875 114.121 17.1875C113.562 17.1875 113.105 17.3387 112.749 17.6915C112.394 18.0443 112.241 18.498 112.241 19.0524V25H109.548V14.7681H112.038V15.877C112.8 15.121 113.766 14.7681 114.934 14.7681C116.052 14.7681 116.967 15.121 117.627 15.8266Z" fill="#2A2E3D"/>
<path d="M128.45 15.8266C129.11 16.5322 129.466 17.4899 129.466 18.6996V25H126.773V19.0524C126.773 18.498 126.62 18.0443 126.265 17.6915C125.909 17.3387 125.502 17.1875 124.944 17.1875C124.385 17.1875 123.927 17.3387 123.572 17.6915C123.216 18.0443 123.064 18.498 123.064 19.0524V25H120.371V14.7681H122.86V15.877C123.623 15.121 124.588 14.7681 125.757 14.7681C126.874 14.7681 127.789 15.121 128.45 15.8266Z" fill="#2A2E3D"/>
</g>
<defs>
<clipPath id="clip0">
<rect width="141" height="25" fill="white"/>
</clipPath>
</defs>
</svg>
